<svg width="590" height="350" viewBox="0 0 590 350" fill="none" xmlns="http://www.w3.org/2000/svg">
<g clip-path="url(#clip0_34429_1369)">
<path d="M414.781 125.172C390.491 118.756 365.954 121.02 344.448 130.052C314.227 142.753 290.015 168.83 280.984 202.947C268 251.994 223.661 284.417 175.159 284.382C165.917 284.373 156.535 283.188 147.178 280.721C136.294 277.851 126.217 273.428 117.142 267.758C77.495 243.032 56.771 194.556 69.3425 147.045C82.3181 97.9976 126.665 65.5834 175.159 65.6097C184.401 65.6185 193.783 66.8034 203.14 69.2698C214.007 72.1399 224.057 76.5461 233.123 82.1986C233.835 82.6375 234.573 83.0412 235.328 83.4274C235.565 83.5503 235.803 83.6732 236.049 83.7873C236.136 83.8312 236.215 83.8663 236.303 83.9102C238.122 84.7791 240.028 85.4901 242.005 86.0255C243.525 86.4292 245.097 86.7189 246.696 86.9032C261.095 88.6937 275.81 81.3911 281.555 67.5407C287.064 54.252 282.636 38.9358 272.208 29.7109C272.199 29.7021 272.19 29.6934 272.173 29.6846C270.179 27.9204 267.965 26.3844 265.558 25.1292C251.668 16.7733 236.4 10.1992 219.945 5.85447C204.984 1.89595 189.962 0.00884842 175.177 7.12104e-05C97.5778 -0.0701464 26.6293 51.7944 5.86133 130.263C-14.2565 206.282 18.916 283.846 82.3444 323.405C96.875 332.472 112.987 339.538 130.408 344.146C145.369 348.104 160.391 349.991 175.177 350C222.625 350.026 267.587 330.646 300.109 297.644C314.333 316.111 334.547 330.199 358.838 336.615C417.276 352.054 477.182 317.235 492.635 258.849C508.079 200.463 473.229 140.611 414.781 125.172ZM429.136 242.084C422.951 265.44 398.995 279.37 375.617 273.191C352.24 267.02 338.298 243.076 344.483 219.72C350.668 196.364 374.625 182.434 398.002 188.613C421.379 194.784 435.321 218.719 429.136 242.084Z" fill="#FF2E38"/>
<path d="M556.072 309.783C574.81 309.783 590 294.606 590 275.885C590 257.164 574.81 241.988 556.072 241.988C537.334 241.988 522.144 257.164 522.144 275.885C522.144 294.606 537.334 309.783 556.072 309.783Z" fill="#FF2E38"/>
</g>
<defs>
<clipPath id="clip0_34429_1369">
<rect width="590" height="350" fill="white"/>
</clipPath>
</defs>
</svg>
